<svg width="372" height="281" viewBox="0 0 372 281" fill="none" xmlns="http://www.w3.org/2000/svg">
<path d="M247.647 25.9438C224.668 11.4004 197.572 2.60077 169.279 0.493584C140.986 -1.6136 112.57 3.05159 87.094 13.9862C61.6182 24.9208 40.0491 41.7101 24.7119 62.5441C9.37479 83.3781 0.851354 107.466 0.0605123 132.212C-0.730329 156.958 6.24143 181.423 20.2242 202.969C34.2069 224.515 54.6703 242.325 79.4081 254.48C104.146 266.634 132.22 272.671 160.604 271.941C188.987 271.21 216.604 263.74 240.476 250.334L233.419 240.782C211.541 253.067 186.231 259.914 160.219 260.584C134.207 261.253 108.478 255.72 85.807 244.581C63.1359 233.442 44.3822 217.12 31.5676 197.374C18.753 177.628 12.3638 155.207 13.0885 132.529C13.8133 109.85 21.6246 87.7744 35.6804 68.681C49.7363 49.5876 69.5034 34.201 92.8507 24.1799C116.198 14.1588 142.24 9.88337 168.169 11.8145C194.099 13.7456 218.931 21.8101 239.991 35.1385L247.647 25.9438Z" fill="#4384A8"/>
<path d="M247.647 25.9438C224.668 11.4004 197.572 2.60077 169.279 0.493584C140.986 -1.6136 112.57 3.05159 87.094 13.9862C61.6182 24.9208 40.0491 41.7101 24.7119 62.5441C9.37479 83.3781 0.851354 107.466 0.0605123 132.212C-0.730329 156.958 6.24143 181.423 20.2242 202.969C34.2069 224.515 54.6703 242.325 79.4081 254.48C104.146 266.634 132.22 272.671 160.604 271.941C188.987 271.21 216.604 263.74 240.476 250.334L233.419 240.782C211.541 253.067 186.231 259.914 160.219 260.584C134.207 261.253 108.478 255.72 85.807 244.581C63.1359 233.442 44.3822 217.12 31.5676 197.374C18.753 177.628 12.3638 155.207 13.0885 132.529C13.8133 109.85 21.6246 87.7744 35.6804 68.681C49.7363 49.5876 69.5034 34.201 92.8507 24.1799C116.198 14.1588 142.24 9.88337 168.169 11.8145C194.099 13.7456 218.931 21.8101 239.991 35.1385L247.647 25.9438Z" fill="url(#paint0_linear_11_2)"/>
<path d="M182.25 125.734V144.133H89.9062V125.734H182.25ZM93.4219 52.375V223H70.8047V52.375H93.4219ZM201.938 52.375V223H179.438V52.375H201.938ZM302.953 143.195H259.711L259.477 125.031H298.734C305.219 125.031 310.883 123.938 315.727 121.75C320.57 119.562 324.32 116.438 326.977 112.375C329.711 108.234 331.078 103.312 331.078 97.6094C331.078 91.3594 329.867 86.2812 327.445 82.375C325.102 78.3906 321.469 75.5 316.547 73.7031C311.703 71.8281 305.531 70.8906 298.031 70.8906H264.75V223H242.133V52.375H298.031C306.781 52.375 314.594 53.2734 321.469 55.0703C328.344 56.7891 334.164 59.5234 338.93 63.2734C343.773 66.9453 347.445 71.6328 349.945 77.3359C352.445 83.0391 353.695 89.875 353.695 97.8438C353.695 104.875 351.898 111.242 348.305 116.945C344.711 122.57 339.711 127.18 333.305 130.773C326.977 134.367 319.555 136.672 311.039 137.688L302.953 143.195ZM301.898 223H250.805L263.578 204.602H301.898C309.086 204.602 315.18 203.352 320.18 200.852C325.258 198.352 329.125 194.836 331.781 190.305C334.438 185.695 335.766 180.266 335.766 174.016C335.766 167.688 334.633 162.219 332.367 157.609C330.102 153 326.547 149.445 321.703 146.945C316.859 144.445 310.609 143.195 302.953 143.195H270.727L270.961 125.031H315.023L319.828 131.594C328.031 132.297 334.984 134.641 340.688 138.625C346.391 142.531 350.727 147.531 353.695 153.625C356.742 159.719 358.266 166.438 358.266 173.781C358.266 184.406 355.922 193.391 351.234 200.734C346.625 208 340.102 213.547 331.664 217.375C323.227 221.125 313.305 223 301.898 223Z" fill="#4384A8"/>
<path d="M182.25 125.734V144.133H89.9062V125.734H182.25ZM93.4219 52.375V223H70.8047V52.375H93.4219ZM201.938 52.375V223H179.438V52.375H201.938ZM302.953 143.195H259.711L259.477 125.031H298.734C305.219 125.031 310.883 123.938 315.727 121.75C320.57 119.562 324.32 116.438 326.977 112.375C329.711 108.234 331.078 103.312 331.078 97.6094C331.078 91.3594 329.867 86.2812 327.445 82.375C325.102 78.3906 321.469 75.5 316.547 73.7031C311.703 71.8281 305.531 70.8906 298.031 70.8906H264.75V223H242.133V52.375H298.031C306.781 52.375 314.594 53.2734 321.469 55.0703C328.344 56.7891 334.164 59.5234 338.93 63.2734C343.773 66.9453 347.445 71.6328 349.945 77.3359C352.445 83.0391 353.695 89.875 353.695 97.8438C353.695 104.875 351.898 111.242 348.305 116.945C344.711 122.57 339.711 127.18 333.305 130.773C326.977 134.367 319.555 136.672 311.039 137.688L302.953 143.195ZM301.898 223H250.805L263.578 204.602H301.898C309.086 204.602 315.18 203.352 320.18 200.852C325.258 198.352 329.125 194.836 331.781 190.305C334.438 185.695 335.766 180.266 335.766 174.016C335.766 167.688 334.633 162.219 332.367 157.609C330.102 153 326.547 149.445 321.703 146.945C316.859 144.445 310.609 143.195 302.953 143.195H270.727L270.961 125.031H315.023L319.828 131.594C328.031 132.297 334.984 134.641 340.688 138.625C346.391 142.531 350.727 147.531 353.695 153.625C356.742 159.719 358.266 166.438 358.266 173.781C358.266 184.406 355.922 193.391 351.234 200.734C346.625 208 340.102 213.547 331.664 217.375C323.227 221.125 313.305 223 301.898 223Z" fill="url(#paint1_linear_11_2)"/>
<defs>
<linearGradient id="paint0_linear_11_2" x1="156" y1="0" x2="156" y2="272" gradientUnits="userSpaceOnUse">
<stop stop-color="#973B99"/>
<stop offset="1" stop-color="#973B99" stop-opacity="0"/>
</linearGradient>
<linearGradient id="paint1_linear_11_2" x1="211.5" y1="0" x2="211.5" y2="281" gradientUnits="userSpaceOnUse">
<stop stop-color="#973B99"/>
<stop offset="1" stop-color="#973B99" stop-opacity="0"/>
</linearGradient>
</defs>
</svg>
